<svg xmlns="http://www.w3.org/2000/svg" width="44" height="32"><path d="M40 0H4a4 4 0 0 0-4 4v24a4 4 0 0 0 4 4h36a4 4 0 0 0 4-4V4a4 4 0 0 0-4-4zM4 2h36a2.1 2.1 0 0 1 .67.12L23.35 19.43A1.868 1.868 0 0 1 22 20a1.907 1.907 0 0 1-1.36-.57L3.33 2.12A2.146 2.146 0 0 1 4 2zM2 28V4a2.068 2.068 0 0 1 .03-.35L14.38 16 2.03 28.35A2.068 2.068 0 0 1 2 28zm38 2H4a2.146 2.146 0 0 1-.67-.12L15.8 17.41l3.43 3.44a3.911 3.911 0 0 0 5.54 0l3.43-3.44 12.47 12.47A2.1 2.1 0 0 1 40 30zm2-2a2.085 2.085 0 0 1-.04.35L29.62 16 41.96 3.65A2.085 2.085 0 0 1 42 4v24z" fill="red" fill-rule="evenodd"/></svg>