<svg xmlns="http://www.w3.org/2000/svg" width="41" height="41"><path d="M41 32.6h-.013a2.8 2.8 0 0 0-.819-1.98 2.588 2.588 0 0 0-.5-.38l-7.89-6.14a2.771 2.771 0 0 0-3.651-.25l-2.2 2.22h-.006a1.858 1.858 0 0 1-2.906-.17c-.012.02-.028.03-.04.05a35.767 35.767 0 0 1-7.95-7.91c.022-.02.041-.03.063-.05a1.865 1.865 0 0 1-.144-2.96l2.19-2.18a2.729 2.729 0 0 0 .572-1.67 2.8 2.8 0 0 0-.819-1.98l-6.136-7.88a2.807 2.807 0 0 0-.387-.5A2.771 2.771 0 0 0 8.388 0C4.66 0 .001 4.38.001 9.78a9.731 9.731 0 0 0 .948 4.18l-.031.03a59.133 59.133 0 0 0 26.091 26.09l.03-.03a9.741 9.741 0 0 0 4.178.95c5.4 0 9.784-4.66 9.784-8.39v-.01zm-9.783 6.54a7.836 7.836 0 0 1-3.381-.77 1.2 1.2 0 0 0-.31-.11A57.192 57.192 0 0 1 2.75 13.49a1.746 1.746 0 0 0-.117-.32 7.9 7.9 0 0 1-.768-3.39c0-4.52 3.957-7.92 6.523-7.92a.9.9 0 0 1 .659.28.794.794 0 0 1 .126.17c.033.05.069.1.107.15l6.136 7.89a1.39 1.39 0 0 0 .154.17.943.943 0 0 1 .272.66.891.891 0 0 1-.134.47l-2.077 2.06c-.009.01-.019.01-.028.02a3.73 3.73 0 0 0-.159 5.29c.023.04.047.07.073.11a37.361 37.361 0 0 0 8.366 8.33l.077.06a3.7 3.7 0 0 0 5.187-.04.814.814 0 0 0 .105-.1l2.087-2.1a.881.881 0 0 1 .466-.14.9.9 0 0 1 .659.28c.055.05.112.1.173.15l7.89 6.14c.05.04.1.07.157.11a1 1 0 0 1 .166.12.918.918 0 0 1 .273.66c0 .06 0 .12.01.19-.148 2.56-3.498 6.35-7.918 6.35z" fill="red" fill-rule="evenodd"/></svg>