<!DOCTYPE svg  PUBLIC '-//W3C//DTD SVG 1.1//EN'  'http://www.w3.org/Graphics/SVG/1.1/DTD/svg11.dtd'><svg height="32" viewBox="0 0 32 32" width="32" xmlns="http://www.w3.org/2000/svg" fill="#fff"><path d="M31 0H17a1 1 0 0 0 0 2h13v28H17a1 1 0 0 0 0 2h14a1 1 0 0 0 1-1V1a1 1 0 0 0-1-1z"/><path d="M16.393 22.3a1.016 1.016 0 0 0 0 1.428.992.992 0 0 0 1.414 0l6.899-6.999a1.025 1.025 0 0 0 0-1.429l-6.9-6.999a.993.993 0 0 0-1.414 0 1.016 1.016 0 0 0 0 1.428l5.2 5.275H1c-.552 0-1 .452-1 1.01s.448 1.01 1 1.01h20.593l-5.2 5.276z"/></svg>