<svg xmlns="http://www.w3.org/2000/svg" width="18" height="25"><path d="M17.57 6.22a7.293 7.293 0 0 0-.42-1A8.811 8.811 0 0 0 8.88 0 8.657 8.657 0 0 0 .01 7.75v1.07c0 .05.01.45.03.65.33 2.48 2.38 5.13 3.91 7.62C5.6 19.75 7.31 22.38 9 25c1.05-1.71 2.09-3.45 3.11-5.11.28-.49.6-.98.88-1.45.19-.31.54-.62.7-.91 1.65-2.89 4.3-5.8 4.3-8.67V7.69a9.053 9.053 0 0 0-.42-1.47zm-8.62 5.36A3.184 3.184 0 0 1 5.9 9.49a2.568 2.568 0 0 1-.09-.78v-.69a2.974 2.974 0 0 1 3.24-2.84 3.211 3.211 0 0 1 3.29 3.2 3.3 3.3 0 0 1-3.39 3.2z" fill="#fff" fill-rule="evenodd"/></svg>